<svg width="24" height="24" viewBox="0 0 24 24" fill="none" xmlns="http://www.w3.org/2000/svg">
<path d="M20.3644 12.7083C20.5519 12.5208 20.6572 12.2665 20.6572 12.0013C20.6572 11.7362 20.5519 11.4818 20.3644 11.2943L14.7074 5.63732C14.6152 5.54181 14.5048 5.46563 14.3828 5.41322C14.2608 5.36081 14.1296 5.33322 13.9968 5.33207C13.8641 5.33091 13.7324 5.35622 13.6095 5.4065C13.4866 5.45678 13.3749 5.53103 13.281 5.62492C13.1872 5.71882 13.1129 5.83047 13.0626 5.95337C13.0123 6.07626 12.987 6.20794 12.9882 6.34072C12.9893 6.4735 13.0169 6.60472 13.0693 6.72672C13.1217 6.84873 13.1979 6.95907 13.2934 7.05132L17.2434 11.0013L4.00044 11.0013C3.73522 11.0013 3.48087 11.1067 3.29333 11.2942C3.1058 11.4817 3.00044 11.7361 3.00044 12.0013C3.00044 12.2665 3.1058 12.5209 3.29333 12.7084C3.48087 12.896 3.73522 13.0013 4.00044 13.0013L17.2434 13.0013L13.2934 16.9513C13.1113 17.1399 13.0105 17.3925 13.0128 17.6547C13.015 17.9169 13.1202 18.1677 13.3056 18.3531C13.491 18.5385 13.7418 18.6437 14.004 18.646C14.2662 18.6483 14.5188 18.5475 14.7074 18.3653L20.3644 12.7083Z" fill="#FCF9F6" fill-opacity="0.7"/>
</svg>
