<svg width="20" height="20" viewBox="0 0 20 20" fill="none" xmlns="http://www.w3.org/2000/svg">
<path d="M10.9425 0.833159C11.6115 0.830592 12.2804 0.837315 12.9491 0.853326L13.127 0.859742C13.3323 0.867076 13.5349 0.876242 13.7796 0.887242C14.755 0.933076 15.4205 1.08708 16.0044 1.31349C16.6094 1.54633 17.119 1.86166 17.6287 2.37133C18.0947 2.8293 18.4554 3.38328 18.6856 3.99474C18.912 4.57866 19.066 5.24508 19.1119 6.22041C19.1229 6.46424 19.132 6.66774 19.1394 6.87308L19.1449 7.05091C19.1612 7.71934 19.1682 8.38796 19.166 9.05658L19.1669 9.74041V10.9412C19.1691 11.6102 19.1621 12.2791 19.1458 12.9478L19.1403 13.1257C19.133 13.331 19.1238 13.5336 19.1128 13.7783C19.067 14.7537 18.9111 15.4192 18.6856 16.0031C18.4561 16.6152 18.0954 17.1696 17.6287 17.6274C17.1703 18.0934 16.6161 18.454 16.0044 18.6843C15.4205 18.9107 14.755 19.0647 13.7796 19.1106C13.5349 19.1216 13.3323 19.1307 13.127 19.1381L12.9491 19.1436C12.2804 19.1599 11.6115 19.1669 10.9425 19.1647L10.2587 19.1656H9.05879C8.38986 19.1678 7.72093 19.1608 7.0522 19.1445L6.87437 19.139C6.65676 19.1311 6.4392 19.1219 6.2217 19.1115C5.24637 19.0657 4.58087 18.9098 3.99604 18.6843C3.38433 18.4546 2.83025 18.0938 2.37262 17.6274C1.90608 17.1693 1.54508 16.615 1.31479 16.0031C1.08837 15.4192 0.93437 14.7537 0.888537 13.7783C0.878328 13.5608 0.869161 13.3433 0.861037 13.1257L0.856453 12.9478C0.839553 12.2791 0.831914 11.6102 0.833537 10.9412V9.05658C0.830978 8.38796 0.837701 7.71934 0.853703 7.05091L0.86012 6.87308C0.867453 6.66774 0.87662 6.46424 0.88762 6.22041C0.933453 5.24416 1.08745 4.57958 1.31387 3.99474C1.54429 3.38298 1.906 2.82915 2.37354 2.37224C2.83086 1.90543 3.38458 1.5441 3.99604 1.31349C4.58087 1.08708 5.24545 0.933076 6.2217 0.887242L6.87437 0.859742L7.0522 0.855159C7.72062 0.838268 8.38924 0.830628 9.05787 0.832243L10.9425 0.833159ZM10.0002 5.41649C9.39292 5.4079 8.78998 5.5201 8.22643 5.74655C7.66288 5.97301 7.14996 6.30921 6.71748 6.73563C6.28499 7.16204 5.94157 7.67015 5.70717 8.23044C5.47276 8.79073 5.35205 9.39202 5.35205 9.99937C5.35205 10.6067 5.47276 11.208 5.70717 11.7683C5.94157 12.3286 6.28499 12.8367 6.71748 13.2631C7.14996 13.6895 7.66288 14.0257 8.22643 14.2522C8.78998 14.4786 9.39292 14.5908 10.0002 14.5822C11.2158 14.5822 12.3816 14.0994 13.2411 13.2398C14.1007 12.3803 14.5835 11.2145 14.5835 9.99891C14.5835 8.78333 14.1007 7.61755 13.2411 6.758C12.3816 5.89846 11.2158 5.41649 10.0002 5.41649ZM10.0002 7.24983C10.3655 7.2431 10.7285 7.30922 11.0679 7.44435C11.4074 7.57948 11.7165 7.78089 11.9772 8.03683C12.238 8.29276 12.4451 8.59809 12.5865 8.93497C12.7279 9.27186 12.8008 9.63354 12.8009 9.9989C12.8009 10.3643 12.7282 10.726 12.5869 11.0629C12.4456 11.3998 12.2386 11.7052 11.9779 11.9613C11.7173 12.2173 11.4082 12.4188 11.0688 12.554C10.7294 12.6893 10.3664 12.7555 10.0011 12.7489C9.27177 12.7489 8.5723 12.4592 8.05658 11.9435C7.54085 11.4277 7.25112 10.7283 7.25112 9.99891C7.25112 9.26956 7.54085 8.57009 8.05658 8.05437C8.5723 7.53864 9.27177 7.24891 10.0011 7.24891L10.0002 7.24983ZM14.8127 4.04149C14.517 4.05333 14.2373 4.17913 14.0323 4.39255C13.8272 4.60597 13.7127 4.89045 13.7127 5.18641C13.7127 5.48237 13.8272 5.76685 14.0323 5.98027C14.2373 6.19369 14.517 6.31949 14.8127 6.33133C15.1166 6.33133 15.408 6.2106 15.6229 5.99572C15.8378 5.78083 15.9585 5.48939 15.9585 5.18549C15.9585 4.8816 15.8378 4.59015 15.6229 4.37527C15.408 4.16038 15.1166 4.03966 14.8127 4.03966V4.04149Z" fill="#FCF9F6"/>
</svg>
