<svg width="18" height="14" viewBox="0 0 18 14" fill="none" xmlns="http://www.w3.org/2000/svg">
<path d="M17.3644 7.70832C17.5519 7.52079 17.6572 7.26648 17.6572 7.00132C17.6572 6.73616 17.5519 6.48185 17.3644 6.29432L11.7074 0.637319C11.6152 0.541809 11.5048 0.465627 11.3828 0.413218C11.2608 0.360809 11.1296 0.333223 10.9968 0.332069C10.8641 0.330915 10.7324 0.356217 10.6095 0.406498C10.4866 0.456779 10.3749 0.531032 10.281 0.624924C10.1872 0.718817 10.1129 0.830469 10.0626 0.953365C10.0123 1.07626 9.98704 1.20794 9.98819 1.34072C9.98934 1.4735 10.0169 1.60472 10.0693 1.72672C10.1217 1.84873 10.1979 1.95907 10.2934 2.05132L14.2434 6.00132L1.00044 6.00132C0.735224 6.00132 0.480869 6.10668 0.293333 6.29421C0.105797 6.48175 0.000440318 6.7361 0.000440306 7.00132C0.000440294 7.26653 0.105796 7.52089 0.293333 7.70843C0.480869 7.89596 0.735223 8.00132 1.00044 8.00132L14.2434 8.00132L10.2934 11.9513C10.1113 12.1399 10.0105 12.3925 10.0128 12.6547C10.015 12.9169 10.1202 13.1677 10.3056 13.3531C10.491 13.5385 10.7418 13.6437 11.004 13.646C11.2662 13.6483 11.5188 13.5475 11.7074 13.3653L17.3644 7.70832Z" fill="#FCF9F6" fill-opacity="0.7"/>
</svg>
