<svg width="20" height="14" viewBox="0 0 20 14" fill="none" xmlns="http://www.w3.org/2000/svg">
<path d="M8.16634 9.7487L12.9238 6.9987L8.16634 4.2487V9.7487ZM18.763 2.5712C18.8822 3.00203 18.9647 3.57953 19.0197 4.31286C19.0838 5.0462 19.1113 5.6787 19.1113 6.2287L19.1663 6.9987C19.1663 9.0062 19.0197 10.482 18.763 11.4262C18.5338 12.2512 18.0022 12.7829 17.1772 13.012C16.7463 13.1312 15.958 13.2137 14.748 13.2687C13.5563 13.3329 12.4655 13.3604 11.4572 13.3604L9.99967 13.4154C6.15884 13.4154 3.76634 13.2687 2.82217 13.012C1.99717 12.7829 1.46551 12.2512 1.23634 11.4262C1.11717 10.9954 1.03467 10.4179 0.979675 9.68453C0.915508 8.9512 0.888008 8.3187 0.888008 7.7687L0.833008 6.9987C0.833008 4.9912 0.979675 3.51536 1.23634 2.5712C1.46551 1.7462 1.99717 1.21453 2.82217 0.985365C3.25301 0.866198 4.04134 0.783698 5.25134 0.728698C6.44301 0.664531 7.53384 0.637031 8.54217 0.637031L9.99967 0.582031C13.8405 0.582031 16.233 0.728698 17.1772 0.985365C18.0022 1.21453 18.5338 1.7462 18.763 2.5712Z" fill="#FCF9F6"/>
</svg>
